<svg id="Capa_1" enable-background="new 0 0 512 512" height="512" viewBox="0 0 512 512" width="512" xmlns="http://www.w3.org/2000/svg"><g><path d="m22.204 151.56c39.963-89.324 129.611-151.56 233.796-151.56s193.833 62.236 233.796 151.56z" fill="#72d1fb"/><path d="m17.404 348.969c-11.237-28.819-17.404-60.174-17.404-92.969 0-56.018 17.992-107.833 48.514-149.983 8.722-3.714 18.206-7.752 28.554-12.196 141.631-60.821 157.179-74.009 188.497-64.176 51.468 16.158 42.937 62.28 98.1 85.477 37.923 15.947 73.636 7.472 105.028-1.64 27.35 40.737 43.307 89.764 43.307 142.518 0 15.304-1.343 30.294-3.918 44.859-112.103 79.619-347.266 86.662-490.678 48.11z" fill="#07a9f0"/><path d="m123.352 403.674c24.153-116.289 127.195-203.674 250.648-203.674 50.61 0 97.789 14.686 137.51 40.029.325 5.282.49 10.607.49 15.971 0 55-17.344 105.948-46.861 147.674z" fill="#0691ce"/><path d="m419.51 390.029c.325 5.282.49 10.607.49 15.971 0 17.343-1.725 34.283-5.012 50.658-43.67 34.648-98.912 55.342-158.988 55.342-37.316 0-72.767-7.984-104.739-22.337-.251-.113-.502-.226-.753-.34-40.592-18.382-44.429-74.551-6.97-98.684 39.918-25.717 87.448-40.639 138.462-40.639 50.61 0 97.789 14.686 137.51 40.029z" fill="#9bcf1b"/><path d="m489.648 271.273c-13.562 52.675-67.327 88.475-138.478 100.138-31.159 5.108-55.471-26.638-34.234-42.414l-21.152-6.31c-1.3-.388-2.315-1.409-2.696-2.711l-22.031-75.368c-.529-1.811.278-3.745 1.938-4.642l121.83-65.844c3.255-1.759 6.948 1.464 5.646 4.927l-46.651 124.104c53.169-42.632 81.581-93.431 84.899-142.351.611-9.002 12.018-12.541 17.723-5.551 29.902 36.639 43.107 77.567 33.206 116.022z" fill="#e1ebf0"/><path d="m310.082 267.388 90.293-91.407c.418.898.508 1.972.096 3.07l-55.419 147.428-35.469-54.086c-1.035-1.578-.827-3.664.499-5.005zm179.566 3.886c9.901-38.456-3.304-79.384-33.207-116.022-1.63-1.998-3.726-3.135-5.903-3.531-.301 1.287-.345 2.686-.063 4.153 9.593 50.057-6.522 108.971-50.846 165.734-7.029 9.002-14.564 17.688-22.542 26.036-6.161 6.447-7.356 13.405-5.194 19.57 60.74-14.766 105.544-48.513 117.755-95.94z" fill="#fff5f5"/><path d="m373.64 485.184-86.213-49.993c-15.843-9.187-21.239-29.478-12.052-45.321 9.187-15.843 29.478-21.239 45.321-12.052l86.213 49.993c15.843 9.187 21.239 29.478 12.052 45.321-9.187 15.843-29.478 21.239-45.321 12.052zm-278.515-122.483 84.774 23.454-28.637 103.508c-11.03-4.952-21.646-10.662-31.782-17.063-38.741-24.47-24.355-109.899-24.355-109.899z" fill="#495959"/><path d="m479.986 421.211c-.625 26.448-22.195 48.078-48.641 48.771-10.207.267-19.745-2.524-27.764-7.524-23.885-14.895-50.921-23.999-78.924-26.864l-25.279-2.587c-19.371-1.982-38.112-7.998-55.019-17.659-3.884-2.219-7.857-4.242-11.905-6.066-3.068-1.382-6.669-.712-9.096 1.619-6.06 5.82-14.291 9.399-23.358 9.399-7.559 0-14.537-2.487-20.16-6.687-2.983-2.227-7.016-2.227-10.031-.043-7.446 5.396-16.601 8.578-26.5 8.578-4.794 0-9.413-.746-13.748-2.129-5.437-1.734-10.973 2.338-10.872 8.044l.788 44.533c-71.794-45.346-119.477-125.403-119.477-216.596 0-45.583 11.914-88.385 32.798-125.459l33.67-6.205c15.584-2.872 30.597-8.261 44.449-15.957 1.724-.958 3.463-1.878 5.216-2.761 23.94-16.174 52.801-25.618 83.867-25.618 57.733 0 107.848 32.617 132.924 80.428 22.112 42.161 48.396 81.998 79.635 117.923l50.294 57.838c11.428 13.142 16.726 29.623 16.019 45.854l-.064.113c-3.59 6.318-4.303 13.901-1.815 20.728 2.076 5.697 3.145 11.877 2.993 18.327z" fill="#738c96"/><path d="m479.865 423.726c-1.798 24.804-21.996 44.715-46.821 46.184-10.843.642-20.994-2.173-29.455-7.447-23.891-14.892-50.926-24.003-78.932-26.869l-25.279-2.587c-19.371-1.982-38.112-7.998-55.019-17.659-3.884-2.219-7.857-4.242-11.905-6.066-3.068-1.382-6.669-.712-9.096 1.619-6.061 5.82-14.291 9.399-23.358 9.399-7.559 0-14.537-2.487-20.16-6.687-2.982-2.227-7.016-2.227-10.03-.043-7.446 5.396-16.601 8.578-26.5 8.578-4.794 0-9.413-.746-13.748-2.128-4.408-1.406-8.882 1.005-10.363 5.009-.301-17.026-4.809-33.668-12.804-48.704-11.462-21.557-19.999-45.431-25.125-70.524-7.952-38.929-7.469-80.062 1.395-118.969.91-3.993 4.818-6.748 8.834-5.947 4.16.83 6.788 4.922 5.848 9.029-15.217 66.496-3.737 138.437 29.878 192.531 2.711 4.363 7.262 7.328 12.382 7.743 1.221.099 2.456.15 3.703.15.081 0 .162 0 .243-.001 11.292-.059 19.009-11.535 15.02-22.099-4.249-11.252-7.57-23.14-9.866-35.424-5.323-28.486-4.987-58.589.972-87.052.849-4.054 4.83-6.647 8.877-5.804 4.055.849 6.653 4.823 5.804 8.878-9.262 44.242-3.511 91.807 14.881 129.439 1.743 3.565 4.718 6.427 8.411 7.881 3.824 1.506 7.99 2.333 12.349 2.333 9.067 0 17.297-3.578 23.358-9.399 2.427-2.331 6.029-3.002 9.096-1.619 4.048 1.824 8.022 3.847 11.905 6.066 16.906 9.661 35.648 15.677 55.019 17.659l22.314 2.284c28.969 2.965 57.204 11.806 81.928 27.192 8.011 4.985 17.535 7.767 27.725 7.5 21.352-.561 39.513-14.766 46.055-34.124 2.057 6.116 2.965 12.761 2.464 19.678zm-436.003-189.481c6.484-39.794 12.655-78.039 30.241-111.528-2.528.607-5.074 1.147-7.635 1.62l-33.67 6.205c-20.884 37.073-32.798 79.875-32.798 125.458 0 91.193 47.683 171.25 119.477 216.597l-.373-21.097c-.001 0-94.104-101.5-75.242-217.255zm211.584 30.558c0 21.325 17.288 38.613 38.613 38.613s38.613-17.288 38.613-38.613-17.288-38.613-38.613-38.613-38.613 17.288-38.613 38.613z" fill="#607882"/><path d="m451.213 441.213c-7.81 7.81-23.64 4.645-35.355-7.071-11.716-11.716-14.882-27.545-7.071-35.355 7.81-7.81 23.64-4.645 35.355 7.071 11.716 11.716 14.882 27.545 7.071 35.355zm-260.658-377.88c24.125 14.442 45.086 50.528 51.473 78.439 3.336 14.579-8.789 28.264-23.619 26.324-20.387-2.667-42.848-13.951-61.647-32.75-16.293-16.293-22.444-34.261-18.262-52.346 7.215-31.198 18.521-39.741 52.055-19.667z" fill="#495959"/><path d="m231.4 121.807c3.059 3.059 5.659 6.373 7.79 9.836 4.501 13.715 6.126 26.416 3.719 35.08-7.248 2.013-15.265 2.48-23.648 1.48-7.555-2.317-14.955-6.678-21.267-12.99-8.193-8.193-13.097-18.219-14.515-28.038-1.229-8.511 11.373-21.112 19.884-19.883 9.819 1.417 19.845 6.322 28.037 14.515z" fill="#607882"/><path d="m297.227 249.358c8.53 0 15.445 6.915 15.445 15.445s-6.915 15.445-15.445 15.445-15.445-6.915-15.445-15.445 6.915-15.445 15.445-15.445z" fill="#3f4a4a"/><path d="m321.562 256.745c0 5.216-4.229 9.445-9.445 9.445s-9.445-4.229-9.445-9.445 4.229-9.445 9.445-9.445 9.445 4.229 9.445 9.445z" fill="#fffac1"/></g></svg>